<?xml version="1.0" encoding="UTF-8" standalone="no"?>
<!-- Created with Inkscape (http://wwwinkscapeorg/) -->

<svg
   width="720"
   height="60"
   viewBox="0 0 720 60"
   version="1.1"
   id="svg5"
   inkscape:version="1.1.2 (0a00cf5339, 2022-02-04)"
   sodipodi:docname="Pieces.svg"
   xmlns:inkscape="http://www.inkscape.org/namespaces/inkscape"
   xmlns:sodipodi="http://sodipodi.sourceforge.net/DTD/sodipodi-0.dtd"
   xmlns="http://www.w3.org/2000/svg"
   xmlns:svg="http://www.w3.org/2000/svg">
  <sodipodi:namedview
     id="namedview7"
     pagecolor="#ffffff"
     bordercolor="#111111"
     borderopacity="1"
     inkscape:pageshadow="0"
     inkscape:pageopacity="0"
     inkscape:pagecheckerboard="1"
     inkscape:document-units="px"
     showgrid="true"
     inkscape:zoom="8"
     inkscape:cx="239.3125"
     inkscape:cy="46.9375"
     inkscape:window-width="1920"
     inkscape:window-height="1136"
     inkscape:window-x="0"
     inkscape:window-y="0"
     inkscape:window-maximized="1"
     inkscape:current-layer="layer1"
     inkscape:lockguides="false"
     showguides="false">
    <inkscape:grid
       type="xygrid"
       id="grid8779"
       dotted="true" />
  </sodipodi:namedview>
  <defs
     id="defs2" />
  <g
     inkscape:label="Calque 1"
     inkscape:groupmode="layer"
     id="layer1">
    <path
       style="fill:#000000;fill-opacity:1;stroke:#ffffff;stroke-width:1.5;stroke-linecap:butt;stroke-linejoin:miter;stroke-miterlimit:4;stroke-dasharray:none;stroke-opacity:1"
       d="m 30,12 c -7,0 -9,8 -4,11 -6,3 -8,9 -3,14 -7,5 -8,12 -8,16 H 45 C 45,49 44,42 37,37 42,32 40,26 34,23 39,20 37,12 30,12 Z"
       id="path1872"
       sodipodi:nodetypes="cccccccc" />
    <rect
       style="fill:#000000;fill-opacity:1;stroke:#ffffff;stroke-width:1.5;stroke-miterlimit:4;stroke-dasharray:none;stroke-opacity:1;paint-order:fill markers stroke"
       id="rect17431-92"
       width="30"
       height="9"
       x="255"
       y="45" />
    <rect
       style="fill:#000000;fill-opacity:1;stroke:#ffffff;stroke-width:1.5;stroke-miterlimit:4;stroke-dasharray:none;stroke-opacity:1;paint-order:fill markers stroke"
       id="rect17431-92-2"
       width="22"
       height="16"
       x="259"
       y="25" />
    <rect
       style="fill:#000000;fill-opacity:1;stroke:#ffffff;stroke-width:1.5;stroke-miterlimit:4;stroke-dasharray:none;stroke-opacity:1;paint-order:fill markers stroke"
       id="rect17431-92-3"
       width="24"
       height="5"
       x="258"
       y="40" />
    <rect
       style="fill:#000000;fill-opacity:1;stroke:#ffffff;stroke-width:1.5;stroke-miterlimit:4;stroke-dasharray:none;stroke-opacity:1;paint-order:fill markers stroke"
       id="rect17431-92-7"
       width="24"
       height="5"
       x="258"
       y="20" />
    <rect
       style="fill:#000000;fill-opacity:1;stroke:#ffffff;stroke-width:1.5;stroke-miterlimit:4;stroke-dasharray:none;stroke-opacity:1;paint-order:fill markers stroke"
       id="rect17431-922-1"
       width="30"
       height="7"
       x="315"
       y="47" />
    <rect
       style="fill:#000000;fill-opacity:1;stroke:#ffffff;stroke-width:1.5;stroke-miterlimit:4;stroke-dasharray:none;stroke-opacity:1;paint-order:fill markers stroke"
       id="rect17431-9-8"
       width="28"
       height="5"
       x="316"
       y="42" />
    <path
       style="fill:#000000;fill-opacity:1;stroke:#ffffff;stroke-width:1.5;stroke-linecap:butt;stroke-linejoin:miter;stroke-miterlimit:4;stroke-dasharray:none;stroke-opacity:1"
       d="m 139,53 h 26 c 0,-17 -1,-32 -13,-36 0,0 -2,-3 -4,-4 0,1 -2,5 -2,5 0,0 -2,-2 -6,-2 v 4 c 0,0 -11,14 -11,17 0,3 0,3 3,5 2,1 2,0 4,-1 8,-6 11,-7 11,-7 0,0 0,2 -2,4 -4,5 -7,9 -6,15 z"
       id="path21342"
       sodipodi:nodetypes="ccscsccsssscc" />
    <path
       style="fill:#ffffff;fill-opacity:1;stroke:none;stroke-width:1.5;stroke-linecap:butt;stroke-linejoin:miter;stroke-opacity:1;stroke-miterlimit:4;stroke-dasharray:none"
       d="m 139,26 c 0,0 3,-1 3,-1 0,1 -1,2 -1,2 -1,0 0,0 -1,0 z"
       id="path31201"
       sodipodi:nodetypes="cssc" />
    <path
       style="fill:none;stroke:#ffffff;stroke-width:1.5;stroke-linecap:butt;stroke-linejoin:miter;stroke-miterlimit:4;stroke-dasharray:none;stroke-opacity:1"
       d="m 154,21 c 7,6 8,13 8,28"
       id="path32851"
       sodipodi:nodetypes="cc" />
    <path
       style="fill:#000000;fill-opacity:1;stroke:#ffffff;stroke-width:1.5;stroke-linecap:butt;stroke-linejoin:miter;stroke-miterlimit:4;stroke-dasharray:none;stroke-opacity:1"
       d="m 207,37 h 16"
       id="path48229"
       sodipodi:nodetypes="cc" />
    <path
       style="fill:#000000;fill-opacity:1;stroke:#ffffff;stroke-width:1.5;stroke-linecap:butt;stroke-linejoin:miter;stroke-miterlimit:4;stroke-dasharray:none;stroke-opacity:1"
       d="m 256,20 h 28 v -8 h -6 v 3 h -5 v -3 h -6 v 3 h -5 v -3 h -6 z"
       id="path51702"
       sodipodi:nodetypes="ccccccccccccc" />
    <path
       style="fill:#000000;fill-opacity:1;stroke:#ffffff;stroke-width:1.5;stroke-linecap:butt;stroke-linejoin:miter;stroke-miterlimit:4;stroke-dasharray:none;stroke-opacity:1"
       d="m 315,42 -8,-22 12,13 -2,-20 9,19 4,-21 4,21 9,-19 -2,20 12,-13 -8,22 z"
       id="path53075"
       sodipodi:nodetypes="cccccccccccc" />
    <circle
       style="fill:#000000;fill-opacity:1;stroke:#ffffff;stroke-width:1.5;stroke-linecap:round;stroke-linejoin:round;stroke-miterlimit:4;stroke-dasharray:none;stroke-opacity:1;paint-order:fill markers stroke"
       id="path53992"
       cx="308"
       cy="22"
       r="2" />
    <circle
       style="fill:#000000;fill-opacity:1;stroke:#ffffff;stroke-width:1.5;stroke-linecap:round;stroke-linejoin:round;stroke-miterlimit:4;stroke-dasharray:none;stroke-opacity:1;paint-order:fill markers stroke"
       id="path53992-9"
       cx="318"
       cy="15"
       r="2" />
    <circle
       style="fill:#000000;fill-opacity:1;stroke:#ffffff;stroke-width:1.5;stroke-linecap:round;stroke-linejoin:round;stroke-miterlimit:4;stroke-dasharray:none;stroke-opacity:1;paint-order:fill markers stroke"
       id="path53992-7"
       cx="330"
       cy="13"
       r="2" />
    <circle
       style="fill:#000000;fill-opacity:1;stroke:#ffffff;stroke-width:1.5;stroke-linecap:round;stroke-linejoin:round;stroke-miterlimit:4;stroke-dasharray:none;stroke-opacity:1;paint-order:fill markers stroke"
       id="path53992-3"
       cx="342"
       cy="15"
       r="2" />
    <circle
       style="fill:#000000;fill-opacity:1;stroke:#ffffff;stroke-width:1.5;stroke-linecap:round;stroke-linejoin:round;stroke-miterlimit:4;stroke-dasharray:none;stroke-opacity:1;paint-order:fill markers stroke"
       id="path53992-6"
       cx="352"
       cy="22"
       r="2" />
    <rect
       style="fill:#000000;fill-opacity:1;stroke:#000000;stroke-width:1;stroke-miterlimit:4;stroke-dasharray:none;stroke-opacity:1;paint-order:fill markers stroke"
       id="rect20849-8-6"
       width="0"
       height="6"
       x="567"
       y="28"
       ry="0" />
    <rect
       style="fill:#000000;fill-opacity:1;stroke:#000000;stroke-width:1;stroke-miterlimit:4;stroke-dasharray:none;stroke-opacity:1;paint-order:fill markers stroke"
       id="rect21180-7-9"
       width="6"
       height="0"
       x="564"
       y="30" />
    <path
       style="fill:#000000;fill-opacity:1;stroke:#ffffff;stroke-width:1.5;stroke-linecap:butt;stroke-linejoin:miter;stroke-miterlimit:4;stroke-dasharray:none;stroke-opacity:1"
       d="m 88,10 h 4 v 2 h 2 v 4 h -2 v 2 h -4 v -2 h -2 v -4 h 2 z"
       id="path4371-3"
       sodipodi:nodetypes="ccccccccccccc" />
    <path
       style="fill:#000000;fill-opacity:1;stroke:#ffffff;stroke-width:1.5;stroke-linecap:butt;stroke-linejoin:miter;stroke-opacity:1;stroke-miterlimit:4;stroke-dasharray:none"
       d="m 85,31 h 10 c 0,0 6,-13 -5,-13 -11,0 -5,13 -5,13 z"
       id="path7175" />
    <path
       style="fill:#000000;fill-opacity:1;stroke:#ffffff;stroke-width:1.5;stroke-linecap:butt;stroke-linejoin:miter;stroke-opacity:1;stroke-miterlimit:4;stroke-dasharray:none"
       d="M 90,41 V 30 C 85,25 81,22 77,22 73,22 69,24 69,29 69,35 77,41 77,41 Z"
       id="path5361-6"
       sodipodi:nodetypes="cccscc" />
    <path
       style="fill:#000000;fill-opacity:1;stroke:#ffffff;stroke-width:1.5;stroke-linecap:butt;stroke-linejoin:miter;stroke-opacity:1;stroke-miterlimit:4;stroke-dasharray:none"
       d="M 90,41 V 30 c 5,-5 9,-8 13,-8 4,0 8,2 8,7 C 111,35 103,41 103,41 Z"
       id="path5361-6-5"
       sodipodi:nodetypes="cccscc" />
    <path
       style="fill:none;stroke:#ffffff;stroke-width:1.5;stroke-linecap:butt;stroke-linejoin:miter;stroke-opacity:1;stroke-miterlimit:4;stroke-dasharray:none"
       d="m 132,42 2,-3"
       id="path15852" />
    <path
       style="fill:#ffffff;fill-opacity:1;stroke:#000000;stroke-width:1.5;stroke-linecap:butt;stroke-linejoin:miter;stroke-miterlimit:4;stroke-dasharray:none;stroke-opacity:1"
       d="m 390,12 c -7,0 -9,8 -4,11 -6,3 -8,9 -3,14 -7,5 -8,12 -8,16 h 30 c 0,-4 -1,-11 -8,-16 5,-5 3,-11 -3,-14 5,-3 3,-11 -4,-11 z"
       id="path1872-5"
       sodipodi:nodetypes="cccccccc" />
    <path
       style="fill:#ffffff;fill-opacity:1;stroke:#000000;stroke-width:1.5;stroke-linecap:butt;stroke-linejoin:miter;stroke-miterlimit:4;stroke-dasharray:none;stroke-opacity:1"
       d="m 499,53 h 26 c 0,-17 -1,-32 -13,-36 0,0 -2,-3 -4,-4 0,1 -2,5 -2,5 0,0 -2,-2 -6,-2 v 4 c 0,0 -11,14 -11,17 0,3 0,3 3,5 2,1 2,0 4,-1 8,-6 11,-7 11,-7 0,0 0,2 -2,4 -4,5 -7,9 -6,15 z"
       id="path21342-7"
       sodipodi:nodetypes="ccscsccsssscc" />
    <path
       style="fill:#ffffff;fill-opacity:1;stroke:#000000;stroke-width:1.5;stroke-linecap:butt;stroke-linejoin:miter;stroke-miterlimit:4;stroke-dasharray:none;stroke-opacity:1"
       d="m 499,26 c 0,0 3,-1 3,-1 0,1 -1,2 -1,2 -1,0 0,0 -1,0 z"
       id="path31201-0"
       sodipodi:nodetypes="cssc" />
    <path
       style="fill:#ffffff;stroke:#000000;stroke-width:1.5;stroke-linecap:butt;stroke-linejoin:miter;stroke-opacity:1;fill-opacity:1;stroke-miterlimit:4;stroke-dasharray:none"
       d="m 492,42 2,-3"
       id="path15852-2" />
    <path
       style="fill:#000000;fill-opacity:1;stroke:#ffffff;stroke-width:1.5;stroke-linecap:butt;stroke-linejoin:miter;stroke-opacity:1;stroke-miterlimit:4;stroke-dasharray:none"
       d="m 77,41 v 5 c 0,0 5.068363,-1.912367 13,-2 C 98,44 103,46 103,46 V 41 C 103,41 98,39 90,39 82,39 77,41 77,41 Z"
       id="path3230"
       sodipodi:nodetypes="ccsccsc" />
    <path
       style="fill:#000000;fill-opacity:1;stroke:#ffffff;stroke-width:1.5;stroke-linecap:butt;stroke-linejoin:round;stroke-opacity:1;stroke-miterlimit:4;stroke-dasharray:none"
       d="m 77,46 v 5 c 0,0 5,-2 13,-2 C 98,49 103,51 103,51 V 46 C 103,46 98,44 90,44 82,44 77,46 77,46 Z"
       id="path3230-7"
       sodipodi:nodetypes="ccsccsc" />
    <path
       style="fill:#000000;fill-opacity:1;stroke:#ffffff;stroke-width:1.5;stroke-linecap:butt;stroke-linejoin:bevel;stroke-miterlimit:4;stroke-dasharray:none;stroke-opacity:1"
       d="m 77,51 c 0,0 8,-2 13,-2 5,0 13,2 13,2 0,0 -8,2 -13,2 -5,0 -13,-2 -13,-2 z"
       id="path5071"
       sodipodi:nodetypes="cscsc" />
    <rect
       style="fill:#ffffff;fill-opacity:1;stroke:#000000;stroke-width:1.5;stroke-miterlimit:4;stroke-dasharray:none;stroke-opacity:1;paint-order:fill markers stroke"
       id="rect17431-92-35"
       width="30"
       height="9"
       x="615"
       y="45" />
    <rect
       style="fill:#ffffff;fill-opacity:1;stroke:#000000;stroke-width:1.5;stroke-miterlimit:4;stroke-dasharray:none;stroke-opacity:1;paint-order:fill markers stroke"
       id="rect17431-92-2-6"
       width="22"
       height="16"
       x="619"
       y="25" />
    <rect
       style="fill:#ffffff;fill-opacity:1;stroke:#000000;stroke-width:1.5;stroke-miterlimit:4;stroke-dasharray:none;stroke-opacity:1;paint-order:fill markers stroke"
       id="rect17431-92-3-2"
       width="24"
       height="5"
       x="618"
       y="40" />
    <rect
       style="fill:#ffffff;fill-opacity:1;stroke:#000000;stroke-width:1.5;stroke-miterlimit:4;stroke-dasharray:none;stroke-opacity:1;paint-order:fill markers stroke"
       id="rect17431-92-7-9"
       width="24"
       height="5"
       x="618"
       y="20" />
    <rect
       style="fill:#ffffff;fill-opacity:1;stroke:#000000;stroke-width:1.5;stroke-miterlimit:4;stroke-dasharray:none;stroke-opacity:1;paint-order:fill markers stroke"
       id="rect17431-922-1-1"
       width="30"
       height="7"
       x="675"
       y="47" />
    <rect
       style="fill:#ffffff;fill-opacity:1;stroke:#000000;stroke-width:1.5;stroke-miterlimit:4;stroke-dasharray:none;stroke-opacity:1;paint-order:fill markers stroke"
       id="rect17431-9-8-2"
       width="28"
       height="5"
       x="676"
       y="42" />
    <path
       style="fill:#ffffff;fill-opacity:1;stroke:#000000;stroke-width:1.5;stroke-linecap:butt;stroke-linejoin:miter;stroke-miterlimit:4;stroke-dasharray:none;stroke-opacity:1"
       d="m 616,20 h 28 v -8 h -6 v 3 h -5 v -3 h -6 v 3 h -5 v -3 h -6 z"
       id="path51702-7"
       sodipodi:nodetypes="ccccccccccccc" />
    <path
       style="fill:#ffffff;fill-opacity:1;stroke:#000000;stroke-width:1.5;stroke-linecap:butt;stroke-linejoin:miter;stroke-miterlimit:4;stroke-dasharray:none;stroke-opacity:1"
       d="m 675,42 -8,-22 12,13 -2,-20 9,19 4,-21 4,21 9,-19 -2,20 12,-13 -8,22 z"
       id="path53075-0"
       sodipodi:nodetypes="cccccccccccc" />
    <circle
       style="fill:#ffffff;fill-opacity:1;stroke:#000000;stroke-width:1.5;stroke-linecap:round;stroke-linejoin:round;stroke-miterlimit:4;stroke-dasharray:none;stroke-opacity:1;paint-order:fill markers stroke"
       id="path53992-93"
       cx="668"
       cy="22"
       r="2" />
    <circle
       style="fill:#ffffff;fill-opacity:1;stroke:#000000;stroke-width:1.5;stroke-linecap:round;stroke-linejoin:round;stroke-miterlimit:4;stroke-dasharray:none;stroke-opacity:1;paint-order:fill markers stroke"
       id="path53992-9-6"
       cx="678"
       cy="15"
       r="2" />
    <circle
       style="fill:#ffffff;fill-opacity:1;stroke:#000000;stroke-width:1.5;stroke-linecap:round;stroke-linejoin:round;stroke-miterlimit:4;stroke-dasharray:none;stroke-opacity:1;paint-order:fill markers stroke"
       id="path53992-7-0"
       cx="690"
       cy="13"
       r="2" />
    <circle
       style="fill:#ffffff;fill-opacity:1;stroke:#000000;stroke-width:1.5;stroke-linecap:round;stroke-linejoin:round;stroke-miterlimit:4;stroke-dasharray:none;stroke-opacity:1;paint-order:fill markers stroke"
       id="path53992-3-6"
       cx="702"
       cy="15"
       r="2" />
    <circle
       style="fill:#ffffff;fill-opacity:1;stroke:#000000;stroke-width:1.5;stroke-linecap:round;stroke-linejoin:round;stroke-miterlimit:4;stroke-dasharray:none;stroke-opacity:1;paint-order:fill markers stroke"
       id="path53992-6-2"
       cx="712"
       cy="22"
       r="2" />
    <path
       style="fill:#ffffff;fill-opacity:1;stroke:#000000;stroke-width:1.5;stroke-linecap:butt;stroke-linejoin:miter;stroke-miterlimit:4;stroke-dasharray:none;stroke-opacity:1"
       d="m 448,10 h 4 v 2 h 2 v 4 h -2 v 2 h -4 v -2 h -2 v -4 h 2 z"
       id="path4371-3-6"
       sodipodi:nodetypes="ccccccccccccc" />
    <path
       style="fill:#ffffff;fill-opacity:1;stroke:#000000;stroke-width:1.5;stroke-linecap:butt;stroke-linejoin:miter;stroke-opacity:1;stroke-miterlimit:4;stroke-dasharray:none"
       d="m 445,31 h 10 c 0,0 6,-13 -5,-13 -11,0 -5,13 -5,13 z"
       id="path7175-1" />
    <path
       style="fill:#ffffff;fill-opacity:1;stroke:#000000;stroke-width:1.5;stroke-linecap:butt;stroke-linejoin:miter;stroke-opacity:1;stroke-miterlimit:4;stroke-dasharray:none"
       d="M 450,41 V 30 c -5,-5 -9,-8 -13,-8 -4,0 -8,2 -8,7 C 429,35 437,41 437,41 Z"
       id="path5361-6-8"
       sodipodi:nodetypes="cccscc" />
    <path
       style="fill:#ffffff;fill-opacity:1;stroke:#000000;stroke-width:1.5;stroke-linecap:butt;stroke-linejoin:miter;stroke-opacity:1;stroke-miterlimit:4;stroke-dasharray:none"
       d="M 450,41 V 30 c 5,-5 9,-8 13,-8 4,0 8,2 8,7 C 471,35 463,41 463,41 Z"
       id="path5361-6-5-7"
       sodipodi:nodetypes="cccscc" />
    <path
       style="fill:#ffffff;fill-opacity:1;stroke:#000000;stroke-width:1.5;stroke-linecap:butt;stroke-linejoin:miter;stroke-opacity:1;stroke-miterlimit:4;stroke-dasharray:none"
       d="m 437,41 v 5 c 0,0 5,-2 13,-2 C 458,44 463,46 463,46 v -5 c 0,0 -5,-2 -13,-2 C 442,39 437,41 437,41 Z"
       id="path3230-9"
       sodipodi:nodetypes="ccsccsc" />
    <path
       style="fill:#ffffff;fill-opacity:1;stroke:#000000;stroke-width:1.5;stroke-linecap:butt;stroke-linejoin:round;stroke-opacity:1;stroke-miterlimit:4;stroke-dasharray:none"
       d="m 437,46 v 5 c 0,0 5,-2 13,-2 C 458,49 463,51 463,51 v -5 c 0,0 -5,-2 -13,-2 C 442,44 437,46 437,46 Z"
       id="path3230-7-2"
       sodipodi:nodetypes="ccsccsc" />
    <path
       style="fill:#ffffff;fill-opacity:1;stroke:#000000;stroke-width:1.5;stroke-linecap:butt;stroke-linejoin:miter;stroke-miterlimit:4;stroke-dasharray:none;stroke-opacity:1"
       d="m 437,51 c 0,0 8,-2 13,-2 5,0 13,2 13,2 0,0 -8,2 -13,2 -5,0 -13,-2 -13,-2 z"
       id="path5071-0"
       sodipodi:nodetypes="cscsc" />
    <path
       style="fill:#ffffff;stroke:#000000;stroke-width:1.5;stroke-linecap:butt;stroke-linejoin:miter;stroke-miterlimit:4;stroke-dasharray:none;stroke-opacity:1;fill-opacity:1"
       d="m 570,22 c -6,0 -12,11 -12,14 0,3 4,5 4,5 h 16 c 0,0 4,-2 4,-5 0,-3 -6,-14 -12,-14 z"
       id="path9129"
       sodipodi:nodetypes="ssccss" />
    <circle
       style="fill:#ffffff;fill-opacity:1;stroke:#000000;stroke-width:1.5;stroke-linecap:round;stroke-linejoin:round;stroke-miterlimit:4;stroke-dasharray:none;stroke-opacity:1;paint-order:fill markers stroke"
       id="path9607"
       cx="570"
       cy="18"
       r="3.5" />
    <path
       style="fill:#ffffff;stroke:#000000;stroke-width:1.5;stroke-linecap:butt;stroke-linejoin:miter;stroke-miterlimit:4;stroke-dasharray:none;stroke-opacity:1;fill-opacity:1"
       d="m 564,41 c -5,0 -4,6 0,6 L 576,47 c 4,0 5,-6 0,-6 z"
       id="path9722"
       sodipodi:nodetypes="sscss" />
    <path
       style="fill:#ffffff;stroke:#000000;stroke-width:1.5;stroke-linecap:butt;stroke-linejoin:miter;stroke-miterlimit:4;stroke-dasharray:none;stroke-opacity:1;fill-opacity:1"
       d="m 564,47 c -1,2 -4,2 -7,2 -3,0 -5,2 -5,2 v 2 c 0,0 6,-1 9,-1 3,0 9,-1 9,-3 L 567,47 Z"
       id="path10080"
       sodipodi:nodetypes="csccsscc" />
    <path
       style="fill:#ffffff;stroke:#000000;stroke-width:1.5;stroke-linecap:butt;stroke-linejoin:miter;stroke-miterlimit:4;stroke-dasharray:none;stroke-opacity:1;fill-opacity:1"
       d="m 576,47 c 1,2 4,2 7,2 3,0 5,2 5,2 v 2 c 0,0 -6,-1 -9,-1 -3,0 -9,-1 -9,-3 L 567,47 Z"
       id="path10080-2"
       sodipodi:nodetypes="csccsscc" />
    <path
       style="fill:#000000;fill-opacity:1;stroke:#ffffff;stroke-width:1.5;stroke-linecap:butt;stroke-linejoin:miter;stroke-miterlimit:4;stroke-dasharray:none;stroke-opacity:1"
       d="m 210,22 c -6,0 -12,11 -12,14 0,3 4,5 4,5 h 16 c 0,0 4,-2 4,-5 0,-3 -6,-14 -12,-14 z"
       id="path9129-5"
       sodipodi:nodetypes="ssccss" />
    <circle
       style="fill:#000000;fill-opacity:1;stroke:#ffffff;stroke-width:1.5;stroke-linecap:round;stroke-linejoin:round;stroke-miterlimit:4;stroke-dasharray:none;stroke-opacity:1;paint-order:fill markers stroke"
       id="path9607-9"
       cx="210"
       cy="18"
       r="3.5" />
    <path
       style="fill:#000000;fill-opacity:1;stroke:#ffffff;stroke-width:1.5;stroke-linecap:butt;stroke-linejoin:miter;stroke-miterlimit:4;stroke-dasharray:none;stroke-opacity:1"
       d="m 205,40 c -5,0 -4,6 0,6 h 12 c 4,0 5,-6 0,-6 z"
       id="path9722-2"
       sodipodi:nodetypes="sscss" />
    <path
       style="fill:#000000;fill-opacity:1;stroke:#ffffff;stroke-width:1.5;stroke-linecap:butt;stroke-linejoin:miter;stroke-miterlimit:4;stroke-dasharray:none;stroke-opacity:1"
       d="m 204,47 c -1,2 -4,2 -7,2 -3,0 -5,2 -5,2 v 2 c 0,0 6,-1 9,-1 3,0 9,-1 9,-3 v -2 z"
       id="path10080-28"
       sodipodi:nodetypes="csccsscc" />
    <path
       style="fill:#000000;fill-opacity:1;stroke:#ffffff;stroke-width:1.5;stroke-linecap:butt;stroke-linejoin:miter;stroke-miterlimit:4;stroke-dasharray:none;stroke-opacity:1"
       d="m 216,47 c 1,2 4,2 7,2 3,0 5,2 5,2 v 2 c 0,0 -6,-1 -9,-1 -3,0 -9,-1 -9,-3 v -2 z"
       id="path10080-2-9"
       sodipodi:nodetypes="csccsscc" />
    <rect
       style="fill:#ffffff;fill-opacity:1;stroke:none;stroke-width:1.5;stroke-miterlimit:4;stroke-dasharray:none;stroke-opacity:1;paint-order:fill markers stroke"
       id="rect20849-8-0-3"
       width="2"
       height="7"
       x="209"
       y="29"
       ry="0" />
    <rect
       style="fill:#ffffff;fill-opacity:1;stroke:none;stroke-width:1.5;stroke-miterlimit:4;stroke-dasharray:none;stroke-opacity:1;paint-order:fill markers stroke"
       id="rect21180-7-6-7"
       width="6"
       height="2"
       x="207"
       y="31" />
    <rect
       style="fill:#000000;fill-opacity:1;stroke:none;stroke-width:1.5;stroke-miterlimit:4;stroke-dasharray:none;stroke-opacity:1;paint-order:fill markers stroke"
       id="rect20849-8-0"
       width="2"
       height="7"
       x="569"
       y="29"
       ry="0" />
    <rect
       style="fill:#000000;fill-opacity:1;stroke:none;stroke-width:1.5;stroke-miterlimit:4;stroke-dasharray:none;stroke-opacity:1;paint-order:fill markers stroke"
       id="rect21180-7-6"
       width="6"
       height="2"
       x="567"
       y="31" />
  </g>
</svg>
